<svg width="50" height="50" viewBox="0 0 50 50" fill="none" xmlns="http://www.w3.org/2000/svg">
<g clip-path="url(#clip0_5032_22070)">
<path d="M50.0001 25C50.0001 25.63 50.0001 26.27 49.9201 26.89C49.7996 28.5204 49.5183 30.135 49.0801 31.71C48.6651 33.2248 48.1024 34.6952 47.4001 36.1L46.9301 37C46.7901 37.25 46.6501 37.51 46.5001 37.75C46.4708 37.8143 46.4339 37.8747 46.3901 37.93C46.1601 38.29 45.9301 38.67 45.6901 39.02L45.3501 39.51C43.729 41.7728 41.7457 43.7528 39.4801 45.37L39.3301 45.48C39.1001 45.65 38.8501 45.81 38.6001 45.96C38.3701 46.12 38.1201 46.27 37.8801 46.41L37.5901 46.58C37.4101 46.7 37.2201 46.8 37.0401 46.9L36.9301 46.96L36.5001 47.19C36.1101 47.39 35.7201 47.57 35.3301 47.75C34.4116 48.1611 33.47 48.5184 32.5101 48.82C32.1401 48.94 31.7701 49.04 31.4001 49.14L31.1501 49.2L30.9601 49.25L30.6101 49.33C30.3201 49.4 30.0401 49.46 29.7401 49.51H29.5101L28.9401 49.61H28.6101H28.3501C27.5444 49.7221 26.7332 49.7889 25.9201 49.81H24.1701C23.5601 49.81 22.9701 49.75 22.3801 49.68H22.2701L21.2701 49.55L20.2201 49.36C20.1157 49.3458 20.0122 49.3257 19.9101 49.3C19.5001 49.22 19.0801 49.13 18.6801 49.02L18.4901 48.97L18.1901 48.89L18.0001 49C16.9772 48.7151 15.9749 48.361 15.0001 47.94C14.6301 47.78 14.2601 47.6 13.8901 47.42H13.8301H13.7701C13.6101 47.35 13.4401 47.26 13.2801 47.17C13.1201 47.08 12.7101 46.87 12.4301 46.7C11.8601 46.37 11.3101 46.03 10.7801 45.65C9.54872 44.815 8.40014 43.864 7.35006 42.81C6.49218 41.9383 5.70628 40.9986 5.00006 40C4.74006 39.66 4.49006 39.31 4.25006 38.95C3.52774 37.8897 2.89234 36.7727 2.35006 35.61C2.17006 35.22 2.00006 34.84 1.84006 34.43C1.35654 33.2531 0.968623 32.0392 0.680063 30.8C0.223912 28.9005 -0.0043625 26.9535 6.3131e-05 25C6.3131e-05 24.69 6.3131e-05 24.38 6.3131e-05 24.09C0.182945 19.1164 1.84618 14.3105 4.77678 10.2879C7.70738 6.26519 11.772 3.20878 16.4501 1.51001C17.4283 1.14426 18.4307 0.846883 19.4501 0.620011C21.2703 0.20188 23.1324 -0.00614559 25.0001 1.06537e-05C27.9201 -0.0049328 30.818 0.506263 33.5601 1.51001C34.566 1.87824 35.5479 2.30909 36.5001 2.80001C40.5687 4.90783 43.9798 8.09332 46.3606 12.0085C48.7414 15.9236 50.0004 20.4178 50.0001 25Z" fill="#E9EAF3"/>
<path d="M27.2294 24.0599L33.9994 38.63C34.1775 39.02 34.2378 39.4536 34.1727 39.8774C34.1077 40.3013 33.9203 40.6969 33.6334 41.0156C33.3466 41.3343 32.9728 41.5623 32.5582 41.6714C32.1435 41.7806 31.7059 41.7662 31.2994 41.63L25.8994 39.83C25.4489 39.6753 24.9598 39.6753 24.5094 39.83L19.0994 41.63C18.7052 41.7583 18.283 41.7732 17.8808 41.673C17.4786 41.5728 17.1126 41.3615 16.8248 41.0632C16.537 40.765 16.3388 40.3918 16.253 39.9862C16.1671 39.5807 16.1971 39.1593 16.3394 38.77C16.3585 38.7149 16.3819 38.6614 16.4094 38.61L23.2194 24.0499C23.378 23.6912 23.633 23.3835 23.9561 23.161C24.2792 22.9386 24.6576 22.8101 25.0494 22.79C25.0825 22.785 25.1162 22.785 25.1494 22.79C25.5841 22.7649 26.0161 22.873 26.3878 23.0999C26.7595 23.3269 27.053 23.6618 27.2294 24.0599Z" fill="#FF9400"/>
<path d="M25.2302 35.31C32.1724 35.31 37.8002 29.6823 37.8002 22.74C37.8002 15.7978 32.1724 10.17 25.2302 10.17C18.2879 10.17 12.6602 15.7978 12.6602 22.74C12.6602 29.6823 18.2879 35.31 25.2302 35.31Z" fill="#283365"/>
<path d="M25.2305 35.31C27.4944 35.3117 29.7165 34.7 31.6605 33.54L27.2305 24.06C27.0546 23.6686 26.765 23.3392 26.3994 23.1145C26.0339 22.8899 25.6092 22.7803 25.1805 22.8C25.1474 22.795 25.1137 22.795 25.0805 22.8C24.6888 22.8201 24.3103 22.9486 23.9873 23.171C23.6642 23.3935 23.4092 23.7012 23.2505 24.06L18.8105 33.54C20.7515 34.6987 22.97 35.3104 25.2305 35.31V35.31Z" fill="#FF4500"/>
</g>
<defs>
<clipPath id="clip0_5032_22070">
<rect width="50" height="50" fill="white"/>
</clipPath>
</defs>
</svg>
