<svg width="50" height="50" viewBox="0 0 50 50" fill="none" xmlns="http://www.w3.org/2000/svg">
<g clip-path="url(#clip0_5032_22111)">
<path d="M50.0001 25C50.0001 25.63 50.0001 26.27 49.9201 26.89C49.7996 28.5204 49.5183 30.135 49.0801 31.71C48.6651 33.2248 48.1024 34.6952 47.4001 36.1L46.9301 37C46.7901 37.25 46.6501 37.51 46.5001 37.75C46.4708 37.8143 46.4339 37.8747 46.3901 37.93C46.1601 38.29 45.9301 38.67 45.6901 39.02L45.3501 39.51C43.729 41.7728 41.7457 43.7528 39.4801 45.37L39.3301 45.48C39.1001 45.65 38.8501 45.81 38.6001 45.96C38.3701 46.12 38.1201 46.27 37.8801 46.41L37.5901 46.58C37.4101 46.7 37.2201 46.8 37.0401 46.9L36.9301 46.96L36.5001 47.19C36.1101 47.39 35.7201 47.57 35.3301 47.75C34.4116 48.1611 33.47 48.5184 32.5101 48.82C32.1401 48.94 31.7701 49.04 31.4001 49.14L31.1501 49.2L30.9601 49.25L30.6101 49.33C30.3201 49.4 30.0401 49.46 29.7401 49.51H29.5101L28.9401 49.61H28.6101H28.3501C27.5444 49.7221 26.7332 49.7889 25.9201 49.81H24.1701C23.5601 49.81 22.9701 49.75 22.3801 49.68H22.2701L21.2701 49.55L20.2201 49.36C20.1157 49.3458 20.0122 49.3257 19.9101 49.3C19.5001 49.22 19.0801 49.13 18.6801 49.02L18.4901 48.97L18.1901 48.89L18.0001 49C16.9772 48.7151 15.9749 48.361 15.0001 47.94C14.6301 47.78 14.2601 47.6 13.8901 47.42H13.8301H13.7701C13.6101 47.35 13.4401 47.26 13.2801 47.17C13.1201 47.08 12.7101 46.87 12.4301 46.7C11.8601 46.37 11.3101 46.03 10.7801 45.65C9.54872 44.815 8.40014 43.864 7.35006 42.81C6.49218 41.9383 5.70628 40.9986 5.00006 40C4.74006 39.66 4.49006 39.31 4.25006 38.95C3.52774 37.8897 2.89234 36.7727 2.35006 35.61C2.17006 35.22 2.00006 34.84 1.84006 34.43C1.35654 33.2531 0.968623 32.0392 0.680063 30.8C0.223912 28.9005 -0.0043625 26.9535 6.3131e-05 25C6.3131e-05 24.69 6.3131e-05 24.38 6.3131e-05 24.09C0.182945 19.1164 1.84618 14.3105 4.77678 10.2879C7.70738 6.26519 11.772 3.20878 16.4501 1.51001C17.4283 1.14426 18.4307 0.846883 19.4501 0.620011C21.2703 0.20188 23.1324 -0.00614559 25.0001 1.06537e-05C27.9201 -0.0049328 30.818 0.506263 33.5601 1.51001C34.566 1.87824 35.5479 2.30909 36.5001 2.80001C40.5687 4.90783 43.9798 8.09332 46.3606 12.0085C48.7414 15.9236 50.0004 20.4178 50.0001 25Z" fill="#E9EAF3"/>
<path d="M41.9198 25.6801V19.7701C41.9189 19.2885 41.7805 18.8171 41.521 18.4115C41.2614 18.0058 40.8915 17.6826 40.4546 17.48C40.0177 17.2773 39.5321 17.2035 39.0547 17.2673C38.5774 17.3311 38.1281 17.5298 37.7598 17.8401L30.7598 23.7501C30.4794 23.9885 30.2542 24.2851 30.0997 24.6192C29.9452 24.9533 29.8652 25.317 29.8652 25.6851C29.8652 26.0531 29.9452 26.4168 30.0997 26.751C30.2542 27.0851 30.4794 27.3816 30.7598 27.6201L37.7598 33.5301C38.1281 33.8403 38.5774 34.039 39.0547 34.1028C39.5321 34.1666 40.0177 34.0928 40.4546 33.8902C40.8915 33.6875 41.2614 33.3643 41.521 32.9586C41.7805 32.553 41.9189 32.0817 41.9198 31.6001V25.6801Z" fill="#FF9400"/>
<path d="M28.9397 15.34H17.0697C13.8167 15.34 11.1797 17.977 11.1797 21.23V30.14C11.1797 33.3929 13.8167 36.03 17.0697 36.03H28.9397C32.1926 36.03 34.8297 33.3929 34.8297 30.14V21.23C34.8297 17.977 32.1926 15.34 28.9397 15.34Z" fill="#283365"/>
<path d="M34.8303 20.3101L30.7403 23.7501C30.4599 23.9885 30.2346 24.2851 30.0802 24.6192C29.9257 24.9533 29.8457 25.317 29.8457 25.6851C29.8457 26.0531 29.9257 26.4168 30.0802 26.751C30.2346 27.0851 30.4599 27.3816 30.7403 27.6201L34.8303 31.0601V20.3101Z" fill="#FF4500"/>
<path d="M20.6408 25.68V24C20.6261 23.8473 20.6516 23.6933 20.7147 23.5534C20.7779 23.4136 20.8765 23.2927 21.0009 23.2027C21.1252 23.1127 21.2709 23.0569 21.4235 23.0406C21.5761 23.0243 21.7303 23.0483 21.8708 23.11L25.2408 24.8C25.402 24.8848 25.537 25.0121 25.6312 25.1681C25.7254 25.3241 25.7752 25.5028 25.7752 25.685C25.7752 25.8672 25.7254 26.046 25.6312 26.2019C25.537 26.3579 25.402 26.4852 25.2408 26.57L21.8708 28.26C21.7303 28.3218 21.5761 28.3457 21.4235 28.3294C21.2709 28.3132 21.1252 28.2573 21.0009 28.1673C20.8765 28.0774 20.7779 27.9564 20.7147 27.8166C20.6516 27.6767 20.6261 27.5228 20.6408 27.37V25.68Z" fill="#E9EAF3"/>
</g>
<defs>
<clipPath id="clip0_5032_22111">
<rect width="50" height="50" fill="white"/>
</clipPath>
</defs>
</svg>
