<svg width="50" height="50" viewBox="0 0 50 50" fill="none" xmlns="http://www.w3.org/2000/svg">
<g clip-path="url(#clip0_5031_21982)">
<path d="M50.0001 25C50.0001 25.63 50.0001 26.27 49.9201 26.89C49.7996 28.5204 49.5183 30.135 49.0801 31.71C48.6651 33.2248 48.1024 34.6952 47.4001 36.1L46.9301 37C46.7901 37.25 46.6501 37.51 46.5001 37.75C46.4708 37.8143 46.4339 37.8747 46.3901 37.93C46.1601 38.29 45.9301 38.67 45.6901 39.02L45.3501 39.51C43.729 41.7728 41.7457 43.7528 39.4801 45.37L39.3301 45.48C39.1001 45.65 38.8501 45.81 38.6001 45.96C38.3701 46.12 38.1201 46.27 37.8801 46.41L37.5901 46.58C37.4101 46.7 37.2201 46.8 37.0401 46.9L36.9301 46.96L36.5001 47.19C36.1101 47.39 35.7201 47.57 35.3301 47.75C34.4116 48.1611 33.47 48.5184 32.5101 48.82C32.1401 48.94 31.7701 49.04 31.4001 49.14L31.1501 49.2L30.9601 49.25L30.6101 49.33C30.3201 49.4 30.0401 49.46 29.7401 49.51H29.5101L28.9401 49.61H28.6101H28.3501C27.5444 49.7221 26.7332 49.7889 25.9201 49.81H24.1701C23.5601 49.81 22.9701 49.75 22.3801 49.68H22.2701L21.2701 49.55L20.2201 49.36C20.1157 49.3458 20.0122 49.3257 19.9101 49.3C19.5001 49.22 19.0801 49.13 18.6801 49.02L18.4901 48.97L18.1901 48.89L18.0001 49C16.9772 48.7151 15.9749 48.361 15.0001 47.94C14.6301 47.78 14.2601 47.6 13.8901 47.42H13.8301H13.7701C13.6101 47.35 13.4401 47.26 13.2801 47.17C13.1201 47.08 12.7101 46.87 12.4301 46.7C11.8601 46.37 11.3101 46.03 10.7801 45.65C9.54872 44.815 8.40014 43.864 7.35006 42.81C6.49218 41.9383 5.70628 40.9986 5.00006 40C4.74006 39.66 4.49006 39.31 4.25006 38.95C3.52774 37.8897 2.89234 36.7727 2.35006 35.61C2.17006 35.22 2.00006 34.84 1.84006 34.43C1.35654 33.2531 0.968623 32.0392 0.680063 30.8C0.223912 28.9005 -0.0043625 26.9535 6.3131e-05 25C6.3131e-05 24.69 6.3131e-05 24.38 6.3131e-05 24.09C0.182945 19.1164 1.84618 14.3105 4.77678 10.2879C7.70738 6.26519 11.772 3.20878 16.4501 1.51001C17.4283 1.14426 18.4307 0.846883 19.4501 0.620011C21.2703 0.20188 23.1324 -0.00614559 25.0001 1.06537e-05C27.9201 -0.0049328 30.818 0.506263 33.5601 1.51001C34.566 1.87824 35.5479 2.30909 36.5001 2.80001C40.5687 4.90783 43.9798 8.09332 46.3606 12.0085C48.7414 15.9236 50.0004 20.4178 50.0001 25Z" fill="#E9EAF3"/>
<path d="M20.3107 33.5L12.1807 23.43C11.8582 23.0978 11.6777 22.653 11.6777 22.19C11.6777 21.727 11.8582 21.2822 12.1807 20.95L27.0707 8.99998C27.4461 8.75314 27.9025 8.66109 28.3442 8.74311C28.786 8.82512 29.1789 9.07483 29.4407 9.43998C29.4407 9.43998 29.4407 9.43998 29.4407 9.48998L37.5707 19.57C37.895 19.8992 38.0768 20.3428 38.0768 20.805C38.0768 21.2671 37.895 21.7107 37.5707 22.04L22.7407 34C22.3502 34.2492 21.878 34.3364 21.4242 34.2431C20.9705 34.1497 20.5711 33.8831 20.3107 33.5V33.5Z" fill="#FF9400"/>
<path d="M38.1108 23V36C38.1108 36.5066 37.9096 36.9924 37.5514 37.3506C37.1932 37.7088 36.7074 37.91 36.2008 37.91H13.2008C12.9505 37.91 12.7026 37.8605 12.4714 37.7644C12.2402 37.6683 12.0303 37.5275 11.8538 37.35C11.6772 37.1725 11.5374 36.9618 11.4426 36.7302C11.3477 36.4985 11.2995 36.2504 11.3008 36V23C11.3008 22.4961 11.501 22.0128 11.8573 21.6565C12.2136 21.3002 12.6969 21.1 13.2008 21.1H36.2008C36.4512 21.0987 36.6993 21.1469 36.931 21.2418C37.1626 21.3366 37.3733 21.4764 37.5508 21.6529C37.7283 21.8295 37.8691 22.0394 37.9652 22.2706C38.0613 22.5018 38.1108 22.7496 38.1108 23Z" fill="#283365"/>
<path d="M37.74 21.86C37.5653 21.6145 37.3343 21.4147 37.0663 21.2772C36.7983 21.1397 36.5012 21.0686 36.2 21.07H13.2C12.9173 21.0702 12.6384 21.1342 12.3839 21.2571C12.1294 21.38 11.9059 21.5587 11.73 21.78C11.6783 22.0712 11.6919 22.3702 11.7697 22.6555C11.8475 22.9408 11.9876 23.2053 12.18 23.43L20.31 33.5C20.5702 33.8836 20.9705 34.1498 21.4249 34.2414C21.8792 34.333 22.3514 34.2427 22.74 33.99L37.59 22C37.6444 21.9583 37.6946 21.9114 37.74 21.86Z" fill="#FF4500"/>
<path d="M27.4943 15.8009L28.8875 14.6771C29.3002 14.3442 29.3649 13.7398 29.0321 13.3271L28.8374 13.0858C28.5046 12.6732 27.9002 12.6085 27.4875 12.9413L26.0942 14.0651C25.6816 14.398 25.6169 15.0024 25.9497 15.4151L26.1444 15.6564C26.4772 16.069 27.0816 16.1337 27.4943 15.8009Z" fill="white"/>
<path d="M33.4905 32.24H30.9405C30.4103 32.24 29.9805 32.6698 29.9805 33.2V33.51C29.9805 34.0402 30.4103 34.47 30.9405 34.47H33.4905C34.0207 34.47 34.4505 34.0402 34.4505 33.51V33.2C34.4505 32.6698 34.0207 32.24 33.4905 32.24Z" fill="white"/>
</g>
<defs>
<clipPath id="clip0_5031_21982">
<rect width="50" height="50" fill="white"/>
</clipPath>
</defs>
</svg>
