<svg width="50" height="50" viewBox="0 0 50 50" fill="none" xmlns="http://www.w3.org/2000/svg">
<g clip-path="url(#clip0_5032_22117)">
<path d="M50.0001 25C50.0001 25.63 50.0001 26.27 49.9201 26.89C49.7996 28.5204 49.5183 30.135 49.0801 31.71C48.6651 33.2248 48.1024 34.6952 47.4001 36.1L46.9301 37C46.7901 37.25 46.6501 37.51 46.5001 37.75C46.4708 37.8143 46.4339 37.8747 46.3901 37.93C46.1601 38.29 45.9301 38.67 45.6901 39.02L45.3501 39.51C43.729 41.7728 41.7457 43.7528 39.4801 45.37L39.3301 45.48C39.1001 45.65 38.8501 45.81 38.6001 45.96C38.3701 46.12 38.1201 46.27 37.8801 46.41L37.5901 46.58C37.4101 46.7 37.2201 46.8 37.0401 46.9L36.9301 46.96L36.5001 47.19C36.1101 47.39 35.7201 47.57 35.3301 47.75C34.4116 48.1611 33.47 48.5184 32.5101 48.82C32.1401 48.94 31.7701 49.04 31.4001 49.14L31.1501 49.2L30.9601 49.25L30.6101 49.33C30.3201 49.4 30.0401 49.46 29.7401 49.51H29.5101L28.9401 49.61H28.6101H28.3501C27.5444 49.7221 26.7332 49.7889 25.9201 49.81H24.1701C23.5601 49.81 22.9701 49.75 22.3801 49.68H22.2701L21.2701 49.55L20.2201 49.36C20.1157 49.3458 20.0122 49.3257 19.9101 49.3C19.5001 49.22 19.0801 49.13 18.6801 49.02L18.4901 48.97L18.1901 48.89L18.0001 49C16.9772 48.7151 15.9749 48.361 15.0001 47.94C14.6301 47.78 14.2601 47.6 13.8901 47.42H13.8301H13.7701C13.6101 47.35 13.4401 47.26 13.2801 47.17C13.1201 47.08 12.7101 46.87 12.4301 46.7C11.8601 46.37 11.3101 46.03 10.7801 45.65C9.54872 44.815 8.40014 43.864 7.35006 42.81C6.49218 41.9383 5.70628 40.9986 5.00006 40C4.74006 39.66 4.49006 39.31 4.25006 38.95C3.52774 37.8897 2.89234 36.7727 2.35006 35.61C2.17006 35.22 2.00006 34.84 1.84006 34.43C1.35654 33.2531 0.968623 32.0392 0.680063 30.8C0.223912 28.9005 -0.0043625 26.9535 6.3131e-05 25C6.3131e-05 24.69 6.3131e-05 24.38 6.3131e-05 24.09C0.182945 19.1164 1.84618 14.3105 4.77678 10.2879C7.70738 6.26519 11.772 3.20878 16.4501 1.51001C17.4283 1.14426 18.4307 0.846883 19.4501 0.620011C21.2703 0.20188 23.1324 -0.00614559 25.0001 1.06537e-05C27.9201 -0.0049328 30.818 0.506263 33.5601 1.51001C34.566 1.87824 35.5479 2.30909 36.5001 2.80001C40.5687 4.90783 43.9798 8.09332 46.3606 12.0085C48.7414 15.9236 50.0004 20.4178 50.0001 25Z" fill="#E9EAF3"/>
<path d="M25.2295 9.40003H24.9995C23.082 9.40003 21.243 10.1618 19.8871 11.5176C18.5313 12.8735 17.7695 14.7125 17.7695 16.63V25.14C17.7695 25.3326 17.8076 25.5233 17.8816 25.7011C17.9556 25.8789 18.064 26.0403 18.2007 26.176C18.3373 26.3117 18.4995 26.419 18.6777 26.4918C18.856 26.5646 19.047 26.6014 19.2395 26.6V26.6C19.6294 26.6 20.0033 26.4452 20.279 26.1695C20.5547 25.8938 20.7095 25.5199 20.7095 25.13V16.63C20.7095 15.4913 21.1612 14.3991 21.9654 13.593C22.7697 12.7869 23.8608 12.3327 24.9995 12.33H25.2095C26.3482 12.3327 27.4394 12.7869 28.2436 13.593C29.0479 14.3991 29.4995 15.4913 29.4995 16.63V25.14C29.4995 25.3352 29.5385 25.5284 29.6144 25.7081C29.6902 25.8879 29.8014 26.0507 29.9412 26.1868C30.081 26.3229 30.2467 26.4296 30.4285 26.5006C30.6103 26.5716 30.8045 26.6054 30.9995 26.6V26.6C31.1921 26.6014 31.383 26.5646 31.5613 26.4918C31.7396 26.419 31.9017 26.3117 32.0384 26.176C32.175 26.0403 32.2834 25.8789 32.3574 25.7011C32.4314 25.5233 32.4695 25.3326 32.4695 25.14V16.63C32.4695 15.6797 32.2822 14.7388 31.9182 13.8609C31.5543 12.9831 31.0208 12.1856 30.3484 11.5141C29.676 10.8426 28.8777 10.3103 27.9994 9.94751C27.1211 9.58476 26.1798 9.39872 25.2295 9.40003V9.40003Z" fill="#FF9400"/>
<path d="M36.3709 23.8601V32.5901C36.3707 33.6319 35.9823 34.6363 35.2816 35.4073C34.5808 36.1783 33.618 36.6606 32.5809 36.7601C32.4477 36.7698 32.314 36.7698 32.1809 36.7601H18.0709C16.9604 36.7574 15.8962 36.3151 15.111 35.5299C14.3258 34.7447 13.8835 33.6805 13.8809 32.5701V23.8601C13.8796 23.3094 13.987 22.764 14.1971 22.2551C14.4072 21.7461 14.7158 21.2837 15.1052 20.8943C15.4945 20.505 15.9569 20.1964 16.4659 19.9863C16.9748 19.7762 17.5203 19.6687 18.0709 19.6701H32.1809C33.2913 19.6727 34.3555 20.115 35.1407 20.9002C35.9259 21.6854 36.3682 22.7496 36.3709 23.8601V23.8601Z" fill="#283365"/>
<path d="M19.2592 26.6C19.6491 26.6 20.023 26.4452 20.2986 26.1695C20.5743 25.8938 20.7292 25.5199 20.7292 25.13V19.67H18.0692H17.7892V25.12C17.7865 25.3143 17.8227 25.5071 17.8955 25.6872C17.9683 25.8673 18.0763 26.0311 18.2132 26.1689C18.3501 26.3068 18.5131 26.4159 18.6927 26.4899C18.8724 26.564 19.0649 26.6014 19.2592 26.6V26.6Z" fill="#FF4500"/>
<path d="M32.4595 19.6801H29.5195V25.1501C29.5208 25.3426 29.5602 25.5331 29.6354 25.7104C29.7106 25.8876 29.8202 26.0483 29.9577 26.1831C30.0953 26.3179 30.2582 26.4241 30.437 26.4957C30.6158 26.5672 30.807 26.6027 30.9995 26.6001C31.1921 26.6014 31.383 26.5646 31.5613 26.4918C31.7396 26.419 31.9017 26.3117 32.0384 26.176C32.175 26.0403 32.2834 25.8789 32.3574 25.7011C32.4314 25.5233 32.4695 25.3326 32.4695 25.1401L32.4595 19.6801Z" fill="#FF4500"/>
<circle cx="25" cy="29" r="2" fill="white"/>
</g>
<defs>
<clipPath id="clip0_5032_22117">
<rect width="50" height="50" fill="white"/>
</clipPath>
</defs>
</svg>
